<svg xmlns="http://www.w3.org/2000/svg" width="557.854" height="1181.231" viewBox="0 0 557.854 1181.231"><path d="M3661.2-3948.386c-30.189.869-188.6,6.052-190.507,4.96-1.179-3.539-2.19-12.708,0-28.311,7.373-9.732,10.145-31.4,10.145-31.4s11.089-142.3,13.153-158.52,31.74-104.268,31.74-104.268,2.737-39.966-12.044-87.6-17.336-55.559-45.942-98.614-65.553-78.239-66.838-91.907,24.551-96.228,56.6-177.716,27.551-78.919,71.593-148.239,84.576-114.524,102.724-131.991c.454-8.847-9.3-51.041-7.259-68.735s5.218-29.944,16.787-39.018,38.109-15.862,50.813-14.623,32.677,3.088,47.185,21.429c11.463,24.42,9.71,37.536,10.208,49s-2.042,30.625-8.694,45.677c-14.453,25.916-24.457,47.8-24.457,47.8s12.312,15.432,15.335,47.538-2.3,80.125-2.3,80.125-15.428,118.2-15.253,127.973,8.376,20.417,11.8,26.909c.811,3.177,1.283,26.139,1.283,26.139s2.29,5.672,10.218,11.814,15.56,7.9,20.208,11.917,10.407,16.229,10.407,16.229a560,560,0,0,1,45.112-36.1c23.072-16.255,29.387-20.174,46.464-29.467,30.653-14.058,48.132-19.618,76.328-29.546,5.4-1.271,19.3-1.191,19.3-1.191s3.971,4.448,3.336,5.877-29.7,14.757-73.94,41.96-101.035,67.409-101.035,67.409-4.686,7.228-4.448,14.773c-2.145,2.7-17.235,18.427-21.524,21.6s-20.015,10.881-25.655,12.231-11.6,1.509-13.582,0-5.719-6.2-7.7-12.883-4.467-34.8-5.567-37.314-19.79-21.551-20.613-22.5-4.437-1.671-6.517,1.917-12.15,30.493-18.019,40.637c-2.388,9.024,1.209,19.05,0,22.294s-20.377,25.657-25.3,29.844c-3.922,10.852-2.448,22.354-1.917,32.2.825,10.735,8.855,25.272,14.51,57.092s8.11,70.187,8.11,70.187.553,19.611-5.75,48.069-19.463,65.763-19.463,65.763l-15.925,62.814s-5.633,46.86-7.933,83.28,0,60.956,0,60.956v35.064l28.871,6.488s7.741,2.58,10.616,7.078S3650-3979.4,3650-3979.4s-1.179,0,7.667,5.308,9.142,12.681,9.142,12.681-.074,9.7-5.6,13.029" transform="translate(-3400.865 5124.507)" fill="#757575"/></svg>