<svg xmlns="http://www.w3.org/2000/svg" width="559.195" height="1183.185" viewBox="0 0 559.195 1183.185"><path d="M266.745,1178.185c-7.082,0-19.513-3.635-23.925-7.879-2.385-2.292-4.067-8.252-5.057-12.847-1.064-4.939-1.588-9.473-1.594-9.518v-21.15l0,.01a24.87,24.87,0,0,1-2.694,5.374,31.39,31.39,0,0,1-10.4,9.925c-1.341.789-2.557,1.529-3.629,2.182-7.355,4.478-10.4,6.331-24.375,6.681-1.3.033-2.6.049-3.86.049-15.361,0-26.265-2.457-32.409-7.3a16.49,16.49,0,0,1-4.1-4.557,16.814,16.814,0,0,1-2-5.552c-.756-4.021-.612-8.758-.287-16.083.537-12.082,4.567-19.6,8.465-26.873.483-.9.982-1.832,1.467-2.758,4.276-8.175,27.052-41.165,27.282-41.5l13.3-18.739a.468.468,0,0,0,.118-.308c.123-1.032-.835-4.923-12.37-18.741a144.122,144.122,0,0,0-15.9-15.846c-9.051-8.082-18.41-16.439-29.874-34.622a175.9,175.9,0,0,1-12.574-22.741,158.3,158.3,0,0,1-6.377-18.026c-1.913-6.172-4.293-13.85-8.251-24.516-2.393-6.448-4.328-11.562-6.035-16.074l-.006-.016c-6.921-18.291-9.01-23.811-16.325-52.215-4.684-18.19-8.214-36.944-10.352-49.473-2.274-13.333-3.5-22.671-3.551-23.062.039-.36.971-8.809,3.1-21.33a457.58,457.58,0,0,1,10.805-48.189c7.766-27.068,11.441-35.838,18.761-53.311,2.383-5.688,5.083-12.131,8.441-20.435,13.642-33.732,27.666-61.981,27.806-62.262l2.417-65.283-2.418-38.082-16.925-59.239-10.881,40.5L98.953,494.5,78.4,562.2l-6.649,52.589c-.023.189-.563,4.664-1.7,10.371-1.068,5.36-2.9,12.945-5.554,18.644A36.242,36.242,0,0,1,55.922,655.5a24.59,24.59,0,0,1-4.722,3.419l-4.231,45.336L39.714,874.717,28.229,1066.942v32.038H19.162l-.006-.012c-.234-.505-2.361-5.158-5.018-12.773a232.211,232.211,0,0,1-8.879-33.526c-.5-2.7-.969-5.174-1.345-7.159C.074,1025.2,0,1024.808,0,986.5c0-29.415,1.8-43.967,4.77-68.077v-.007C6.1,907.654,7.6,895.454,9.3,879.192c3.669-35.19,8.1-58.451,11.333-75.436v-.007c1.655-8.691,2.961-15.551,3.687-21.488a150.052,150.052,0,0,1,2.559-15.443,89.258,89.258,0,0,0,2.066-14.81c1.081-14.641,2.892-73.16,2.91-73.746h-.007a21.329,21.329,0,0,1-5.577-1.41,21.138,21.138,0,0,1-9.89-7.87c-2.967-4.45-4.958-12.052-6.107-17.645-1.246-6.071-1.794-11.134-1.8-11.184.023-.3,2.354-29.923,4.185-40.455,4.8-11.048,13.019-24.367,19.065-33.595,6.575-10.036,12.037-17.481,12.09-17.553L64.5,383.881,78.4,270.843l6.649-55.008,13.9-20.552,59.24-45.336-.014-.029c-.5-1.153-3.16-7.35-6.412-16.1a305.978,305.978,0,0,1-10.846-34.939c-1.884-8.018-3.357-13.328-4.54-17.594-2.5-9.024-3.439-12.4-3.439-24.226,0-8.346.951-14.8,2.992-20.308,1.74-4.7,4.221-8.776,8.564-14.084a56.465,56.465,0,0,1,12-11.45c4.883-3.309,10.8-5.9,18.623-8.163A86.744,86.744,0,0,1,198.771,0a99.094,99.094,0,0,1,24.966,3.059A50.86,50.86,0,0,1,241.7,12.028,69.28,69.28,0,0,1,257.3,29.55c2.172,3.378,3.779,8.377,4.776,14.857a123.723,123.723,0,0,1,1.225,18.247,211.121,211.121,0,0,1-1.139,22L253.7,143.3l15.717-2.419c.255-.063,6.318-1.551,14.942-3.022a197.339,197.339,0,0,1,31.6-3.022c9.6,0,15.393.121,20.415.785,4.877.645,9.017,1.769,16.532,3.809l.111.03c1.562.424,3.333.9,5.256,1.42,18.973,5.085,61.328,22.682,110.534,45.923,41.892,19.786,67.139,33.825,75.041,41.726,3.627,3.627,5.944,6.021,7.532,8.671,1.656,2.763,2.451,5.68,2.744,10.068a41.968,41.968,0,0,1-1.768,14.026,49.75,49.75,0,0,1-5.486,12.572c-1.365,2.156-6.5,10.08-15.257,21.553a421.378,421.378,0,0,1-30.683,35.873c-15.952,16.629-22.849,21.939-32.394,29.288-5.57,4.289-11.878,9.146-21.4,17.256C436,387.317,426.2,395.053,418.327,401.269l-.008.006c-10.964,8.657-18.886,14.912-23.172,20.083-.7,1.3-1.368,2.509-1.9,3.484-4.743,8.656-5.73,10.457-6.559,18.277-.506,4.772-.849,13.333-.916,22.9-.058,8.136.055,20.836.916,35.129.928,15.408,1.976,20.361,3.3,26.632.808,3.82,1.724,8.148,2.741,15.682,3.866,32.546,2.554,40.493-3.627,68.911-3.146,14.462-13,45.577-20.72,69.132-8.253,25.193-15.834,47.21-16.153,48.135l-26.6,114.248-19.947,87.649c-.436,1.157-10.726,28.424-15.717,39.9a21.681,21.681,0,0,0,6.416,7.059,37.553,37.553,0,0,0,7.845,3.637,97.337,97.337,0,0,1,10.17,4.37,85.042,85.042,0,0,1,19.68,7.022,83.971,83.971,0,0,1,8.325,4.66,52.393,52.393,0,0,1,.6,8.242,97.356,97.356,0,0,1-2.549,22.041c-4.154,18.224-14.713,43.064-14.819,43.313,0,.054-.254,5.537-1.5,13.86a187.376,187.376,0,0,1-7.617,31.881c-8.254,24.3-16.17,41.249-23.529,50.371a24.7,24.7,0,0,1-6.173,5.473,28.066,28.066,0,0,1-6.793,3.021,51.16,51.16,0,0,1-12.422,1.782C267.33,1178.179,267.041,1178.185,266.745,1178.185ZM387.777,283.168c-4.229,0-7.17.3-7.2.308l.012.051c.314,1.574,1.976,10.031,3.84,21.96.171,13.455.647,17.65,1.2,22.507.338,2.976.688,6.052,1,11.611a91.1,91.1,0,0,0,16.981-12.467,136.658,136.658,0,0,0,13.215-14.015,142.788,142.788,0,0,0,11.625-16.165,71.945,71.945,0,0,0-6.655-4.514,66.083,66.083,0,0,0-15.631-7.042A70.551,70.551,0,0,0,387.777,283.168Z" transform="translate(2.5 2.5)" fill="#757575" stroke="#fff" stroke-width="5"/></svg>