<svg xmlns="http://www.w3.org/2000/svg" width="464.761" height="1468.306" viewBox="0 0 464.761 1468.306"><path d="M3884.259-7663.079l-8.954,203.371s-3.783,2.65-6.776,9.776c7.339,22.015,9.407,15.389,15.289,45.252s1.957,42.478,8.236,74.2S3907.8-7276.5,3907.8-7276.5s-12.531,43.087-20.6,111.063c-3.882,32.7-9.741,66.532-11.68,98.075,2.275,49.263,0,62.769,0,62.769l-36.86-10.335-32.038-14.124s-8.2-24.026-15.344-41.337-6.125-19.894-13.658-26.527c-8.767-2.263-10.905-3.213-16.47,0s-18.9,18.486-26.132,32.438-1.223,20.791-1.223,20.791,23.646,21.811,40.564,32.208c33.105,24.844,91.859,67.171,91.859,67.171s18.417,12.529,26.164,21.7c12.841,31.187,11.366,41.451,24.461,76.848a698.036,698.036,0,0,0,27.918,64.737,437.947,437.947,0,0,0-11.815,58.79c-3.7,30.314-3.127,36.748,0,70.121s20.084,144.268,20.084,144.268l24.8,129.873s-12.126,8.625-19.447,16.979-8.141,8.683-7.155,15.634,7.13,10.437,11.871,11.414,14.585-.017,27.132-3.378,40.268-17.052,61.2-29.281,21.8-15.774,21.8-18.927c-.556-6.031-6.867-16.212-6.867-16.212s5.856-6.5,5.856-13.089-15.158-89.567-15.158-89.567-12.971-76.686-14.169-81.171-6.156-20.108-6.156-20.108a20.081,20.081,0,0,1,12.4,3.1c14.3,15.674,30.073,34.263,44.783,59.6,11.475-.873,25.492-5.511,25.492-5.511s2.229,16.717.722,28.942c-7.745,10.041-9.235,15.149-10.976,21.481a30.065,30.065,0,0,0,0,16.777c1.438,5.366,5.911,9.7,13.642,11.76s13.384.265,17.282-3.519,28.661-37.25,41.684-53.74c6.733-30.706,9.3-64.075,9.3-64.075s-9.129-3.7-21.359-16.88-27.559-35.826-27.559-35.826-14.863-23.128-30.8-52.065c-20.383-24.774-32.935-63.684-32.935-63.684l25.722-70.222s21.41-40.012,29.792-69.305,3.45-48.138,3.45-48.138l-17.281-46.585s23.867-38.557,31.549-57.529c9.879-23.05,6.148-36.346,5.331-50.49s0-23.676-10.7-42.521c-9.37-11.731-18.308-19.571-26.619-31.645,2.979-14.582,4.935-17.72,13.485-34.182s14.387-21.082,18.659-32.3,9.363-27.864,10.321-43.8-3.912-27.8-9.38-36.949-22.185-23.147-32.3-28.224-27.031-2.462-36.221,0-21.057,14.076-29.321,24.931-8.392,25.566-13.642,32.771a93.664,93.664,0,0,1-14.174,5.4l-18.6-50.639-24.8-53.74-13.435-29.626s.4-24.152-8.268-39.961c-4.582-3.964-11.512-2.741-25.577-2.537-1.631-19.57-2.413-37.682-5.427-75.317s-3.445-43.232-5.856-78.2-3.79-61.662-3.79-61.662l16.191-37.894s1.912-24.912,2.756-42.522c-1.637-16.966-4.945-20.5-9.3-25.342s-15.1-10.11-20.324-11.023-18.732.933-23.082,3.445-11.626,5.639-15.5,16.535,0,27.049,0,27.049a211.01,211.01,0,0,0-7.234,22.9c-.59,18.441,3.079,29.245,3.079,29.245a204.146,204.146,0,0,0,7.746,19.568A101.741,101.741,0,0,0,3884.259-7663.079Z" transform="translate(-3728.941 7799.33)" fill="#757575" stroke="#fff" stroke-width="5"/></svg>