<svg xmlns="http://www.w3.org/2000/svg" width="583.686" height="807.127" viewBox="0 0 583.686 807.127"><path d="M4645.945-5511.311s-4.036-21.617-5.906-29.736-3.811-18.811,0-35.96,8.885-25.03,17.185-32.8,17.9-10.77,31.813-13.09,26.51,1.116,32.145,2.651,15.434,8.263,23.695,19.884,8.794,18.13,9.941,25.849,2.271,18.932,1.151,36.154a126.963,126.963,0,0,1-6.721,32.2s29.4,10.431,49.564,22.962,18.622,8.821,31.083,27.163,18.762,46.2,18.762,46.2l10.361,54.885s5.32,20.162,6.44,31.643-1.96,14.281-1.96,14.281,9.031,28.913,12.041,48.725-1.138,33.923-1.138,33.923l-17.624,31.6s8.425-2.008,12.023,0,4.01,5.189,2.369,8.031-16.371,12.063-16.371,12.063l8.832,16.371s26.71,42.435,27.356,42.435S4894-5096.7,4894-5096.7s13.57,21.217,23.479,40.5,9.1,16.425,16.156,36.619,7.485,27.733,12.063,44.158.708,19.109,7.332,32.733,7.324,26.5,9.262,37.7,11.2,23.048,13.571,28.218c6.677,2.37,4.571-.489,13.089,8.029s13.611,13.026,16.2,16.32c1.342,4.437.43,8.169-2.154,9.909-7.221,1.881-22.078,3.993-22.078,3.993l-24.436,2.188s-7.24,1.583-13.584.5c-4.969-2.911-7.081-6.154-9.693-12.278.5-6.923,2.839-11.977,2.37-15.725a155.237,155.237,0,0,0-2.37-30.244,243.554,243.554,0,0,0-24.771-40.625c-15.994-21.3-26.951-26.328-39.2-44.589s-11.181-22.541-12.709-42.65a152.9,152.9,0,0,0-7.324-36.188,20.717,20.717,0,0,0-3.606-6.992c-15.132,7.27-38.8,18.708-53.434,27.615-8.132,4.567-8.2,5.486-15.29,8.009-6.018-6.527-10.867-15.564-14.925-19.294-12.354-17.869-40.049-43.8-40.049-43.8l-40.712-44.374-27.787-23.91-6.247,1.292-21.325,40.065s2.31,4.505,4.369,9.9c3.432,7.746,10.186,9.233,12.06,13.824-2.549,6.275-5.294,5-8.04,4.706-4.412-3.039-2.69-2.157-9.118-6.961-3.165-3.215-3.148-5.312-3.148-5.312s-9.694,63.564-11.632,70.438-6.077,14.848-13.14,17.448-21.487,2.962-34.25,0a49.329,49.329,0,0,1-20.542-10.089l-1.429,6.212s-1.58,33.723-5.839,50.76-20.548,37.556-25.4,55.866-2.231,20.468,0,26.926c-5.116,23.533-22.4,45.266-22.4,45.266l-10.526,15.047a52.45,52.45,0,0,1-18.984,7.1c-11.042,1.775-23.917,0-23.917,0s-6.921-2.487-9.228-7.1-1.636-5.8,0-11.355,36.913-48.958,36.913-48.958l12.6-31.637v-62.04s-.585-31.234,2.614-50.016c11.472-16.711,5.32-17.185,19.358-46.08-5.52-40.672-2.645-94.047,0-105.333a79.265,79.265,0,0,1,8.974-21.287l18.558-19.387s.46-52.264,4.778-98.693,4.685-53.151,12.494-87.024,9.3-34.54,18.74-48.466,22.952-22.828,44.514-36.71A153.452,153.452,0,0,1,4645.945-5511.311Z" transform="translate(-4422.675 5624.141)" fill="#757575" stroke="#707070" stroke-width="1"/></svg>