<svg xmlns="http://www.w3.org/2000/svg" width="564.289" height="864.329" viewBox="0 0 564.289 864.329"><path d="M3987.3-4110.271s13.33-31.159,45.011-48.169c30.532-9.476,50.8-9.315,77.118,10.268s26.009,56.056,26.11,64.854c-3.935,32.606-23.1,58.292-23.1,58.292s20.559,21.8,23.1,61.876-14.319,55.024-14.319,55.024l-47.428,55.118s8.619,50.679,20.476,92.279a400.212,400.212,0,0,0,29.363,73.683l21.173,95.613,48.01,112.022s15.242,27.066,25.817,50.145,9.747,27.659,16.485,42.171,14.129,15.495,14.129,15.495,21.057,8,26.953,15.161,1.349,11.56-3.369,13.476-22.109,9.81-50.536,11.074-58.494-3.081-63.17-6.02,0-36.534,0-36.534-32.638-52.194-54.748-90.648-20.369-38.517-30.9-62.521-11.216-33.5-11.216-33.5-33.27-40.85-59.8-87.6-46.325-99.388-46.325-99.388l-27.795,24.666s1.685,73.308,0,100.832c-.823,3.074-7.032,11.23-7.032,11.23s.01,26.321,7.032,62.889,9.57,38.113,18.624,83.385,16.22,97.905,16.22,97.905,13.624,41.395,12.4,47.712c-2.507,9.109-20.7,15.631-36.645,17.624s-25.684-.575-47.114-5.061-37.5-14.115-40.135-19.206,3.579-10.318,14.318-16.845,30.819-7.415,30.819-7.415l-45.137-121.452L3818-3591.433s-7.868,11.6-14.185,12.655-7.521-2.744-8.818-8.434,5.75-14.327,5.75-14.327-35.615-.816-44.432-4.267-17.024-13.137-20.666-24.919,0-32.51,0-32.51-14.643,3.182-19.02-1.571,8.9-13.087,8.9-13.087l42.752-53.92s3.334-66.622,4.886-78.175,5.061-10.993,5.061-10.993l.7-43.1s-9.626-3.606-12.041-8.55,21.987-100.162,21.987-100.162,4.813-36.032,14.832-68.927,16.752-42.054,29.839-58.108,33.155-25.3,40.833-27.4,41.046-4.239,69.276,0S3987.3-4110.271,3987.3-4110.271Z" transform="translate(-3715.216 4165.021)" fill="#757575" stroke="#707070" stroke-width="1"/></svg>