<svg xmlns="http://www.w3.org/2000/svg" width="582.005" height="792.678" viewBox="0 0 582.005 792.678"><path d="M246.058,787.678h0c7.759,0,14.837-.958,17.819-1.9,6.363-2.019,10.284-4.671,11.655-7.884a7.764,7.764,0,0,0-.488-6.673c-1.979-3.237-5.623-7.471-10.83-12.584-4.165-4.089-9.334-8.748-15.365-13.846-10.242-8.658-19.593-15.715-19.686-15.785l-1.457-274.156-3.884-20.38h8.5l33.5,25.96,0,.006c-.2.71-4.938,17.561-6.309,31.534-1.02,10.047-.966,24.025-.741,33.981.242,10.7.736,19.31.741,19.394L265.82,647.95l-7.768,29.375a69.461,69.461,0,0,0,1.054,10.183,44.116,44.116,0,0,0,2.317,8.438,18.226,18.226,0,0,0,4.4,6.854,321.831,321.831,0,0,1,37.65,6.654,183.367,183.367,0,0,0,34.451,5.234c3.977.241,7.893.364,11.639.364,19.763,0,30.806-3.351,34.963-4.612l.024-.007c.5-.152.9-.272,1.2-.353a16.3,16.3,0,0,0,6.273-3.5,11.846,11.846,0,0,0,2.664-3.4,9.278,9.278,0,0,0,1.017-4.5c0-1.348-.085-2.054-.867-2.7s-2.256-1.2-4.947-2.239c-1.117-.429-2.507-.964-4.14-1.617a31.323,31.323,0,0,0-9.087-2.054c-4.57-.513-9.294-1.043-18.588-6.436-7.775-4.512-16.206-11.462-21.91-16.5-6.161-5.441-10.577-9.9-10.621-9.948l.009-.1c.832-9.464,20.383-231.94,20.383-246.4,0-4.593-1.613-9.847-4.933-16.062a140.486,140.486,0,0,0-9.351-14.525c-2.609-3.69-4.668-6.6-5.38-8.475a18.363,18.363,0,0,1-.879-8.617,20.355,20.355,0,0,1,.879-4s0-.02.033-.052c.122-.122.686-.407,3.276-.407,1.921,0,4.565.154,7.858.458,10.87,1,28.764,2.362,29.521,2.419.079.043,7.677,4.271,10.627,7,1.245,1.156,8.086,13.17,12.086,21.91a26.633,26.633,0,0,1,10.795,7.327,18.268,18.268,0,0,0,4.62,3.8,5.692,5.692,0,0,0,2-3.386,3.728,3.728,0,0,0-.645-2.9,16.96,16.96,0,0,1-.922-1.462c-1.043-1.792-2.339-4.019-10.349-11.284-4.737-9.34-4.506-9.906-4.261-10.5a1.421,1.421,0,0,0,.1-.3,6.863,6.863,0,0,1,3.8,2.992c1.444,1.871,3.626,4.7,10.275,9.157,9.422,2.257,12.554,5.044,16.18,8.271,1.13,1.006,2.3,2.046,3.722,3.13a2.3,2.3,0,0,0,1.164-1.668,9.189,9.189,0,0,0-1.164-6.475,26.286,26.286,0,0,1-2.014-2.251c-2.069-2.517-3.563-4.335-14.892-8.16-7.5-6.238-10.765-10.619-10.726-11.092,4.524,2.695,10.654,6.073,18.737,10.328,13.278,3.092,17.323,5.711,19.5,7.117a8.618,8.618,0,0,0,1.393.8,5.452,5.452,0,0,0,2.211-4.176c-.024-1.606-1-3.211-2.893-4.769-3.007-2.472-7-3.4-10.867-4.294-3.127-.725-6.08-1.41-8-2.881a70.011,70.011,0,0,0-9.873-6.2c-2.3-1.221-3.572-1.894-4.573-3.586.8.423,10.713,3.085,20.539,4.813a106.651,106.651,0,0,1,15.052-1.457,16.015,16.015,0,0,1,3.043.208,1.331,1.331,0,0,0,.2-1.288,6.634,6.634,0,0,0-1.607-2.743,7.931,7.931,0,0,0-3.229-2.16,45.917,45.917,0,0,0-5.618-.223c-4.691,0-10.268.22-10.324.223-.117-.037-11.779-3.717-18.058-7.812-4.183-2.728-4.7-4.807-4.735-5.574a1.589,1.589,0,0,1,.583-1.37,18.775,18.775,0,0,1,3.691-1.8c3.189-1.322,7.158-2.968,9.336-5.89,1.654-2.222,4.4-6.143,4.234-7.441a3.867,3.867,0,0,0-1.383-2.6,4.716,4.716,0,0,0-2.851-1l-.158,0c-2.131,0-4.778,1.557-6.623,2.862a36.026,36.026,0,0,0-3.528,2.862.424.424,0,0,1-.2.068.147.147,0,0,1-.134-.074c-.156-.255.024-1.267,1.765-4.637a87.729,87.729,0,0,0,5.1-13.079L419,306.85l25.71-15.77c.091-.04,9.586-4.2,19.979-8.986,3.2-.3,5.119-.624,6.517-.863a19.509,19.509,0,0,1,3.543-.391,60.857,60.857,0,0,1,9.507,1.255c8.506,1.495,18.619,4.854,25.311,7.076a56.04,56.04,0,0,0,6.261,1.91c.192.014.472.021.855.021.967,0,2.41-.044,4.081-.1l.625-.019c1.913-.058,3.924-.114,5.624-.114a17.615,17.615,0,0,1,3.517.207c1.015.272,2.886,1,4.694,1.712l.007,0c1.763.69,3.429,1.342,4.312,1.579,1.023.274,2.345,2.517,3.745,4.892a32.7,32.7,0,0,0,3.347,5.011,3.257,3.257,0,0,0,2.067.71,5.528,5.528,0,0,0,2.812-.912A15.182,15.182,0,0,1,550.462,300c-.276-.472-.533-.978-.831-1.564a44.7,44.7,0,0,0-4.952-7.836c-6.332-3.771-9.421-7.563-9.642-8.51.058-.013.13-.1.228-.232a2.923,2.923,0,0,1,2.567-1.243c.1,0,.212,0,.32.01a29.224,29.224,0,0,1,5.23,1.155,31.321,31.321,0,0,0,5.131,1.155,53.761,53.761,0,0,0,9.433,6.84c3.358,2,6.339,3.454,7.089,3.455a.4.4,0,0,0,.064,0c2.081-.329,5.113-1.849,5.391-3.848.155-1.118-10.8-7.239-20.464-12.639-7.535-4.21-14.648-8.184-14.989-8.963a7.531,7.531,0,0,1,5.253-2.611h.073c1.913.025,4.04.936,6.291,1.9a23.021,23.021,0,0,0,7.079,2.185,54.246,54.246,0,0,0,10.437,6.762A42.666,42.666,0,0,0,569,278.1c.076.008.761.078,1.691.078,2.248,0,6.047-.407,6.225-3.136-.272-.185-.651-.4-1.09-.651a18.264,18.264,0,0,1-7.242-6.523,41.619,41.619,0,0,0-8.263-5.68,80.229,80.229,0,0,0-8.3-3.465c-3.667-1.361-6.316-2.344-6.779-3.79a10.122,10.122,0,0,1,4.176-.573c2.7,0,6.108.31,9.965.685l.529.052c3.348.326,6.509.635,8.68.635.485,0,.911-.016,1.267-.047,2.786-.245,4.417-.616,5.454-1.242a3.392,3.392,0,0,0,1.6-3.26c-1.355-.376-2.508-.675-3.525-.939l-.007,0a36.553,36.553,0,0,1-5.9-1.862c-2.555-1.126-25.523-6.572-25.755-6.626-.285-.031-28.541-3.16-31.441-3.8-1.163-.259-1.786-.626-2.019-1.191-.414-1,.466-2.7,2.019-5.117a11.265,11.265,0,0,1,4.275-3.7,10.2,10.2,0,0,0,4.95-5.058c2.218-5.076,2.218-10.155,0-12.351a2.769,2.769,0,0,0-2.122-1.26c-2.051,0-4.138,3.116-5.98,5.864-1.209,1.805-2.352,3.51-3.331,4.108-2.955,1.8-46.152,26.461-46.588,26.709l-75.743.971c0-.094.1-11,1.2-26.194.643-8.909,1.5-17.518,2.539-25.587,1.3-10.089,2.9-19.359,4.759-27.554,13.444-9.673,28.495-21.76,41.293-33.16,13.564-12.083,22.781-21.761,25.954-27.252a46.627,46.627,0,0,0,3.682-7.961,45.374,45.374,0,0,0,1.93-7.53,91.31,91.31,0,0,0,.939-14.409v-.007q.011-.949.023-1.9-.087-.918-.168-1.787c-.574-6.141-.988-10.578-2.488-15.536-1.539-5.087-4.235-10.71-9.016-18.8a110.438,110.438,0,0,0-16.467-21.438A84.536,84.536,0,0,0,425.316,5.764C417.446.8,409.621,0,393.939,0a105.966,105.966,0,0,0-18.774,1.259,38.828,38.828,0,0,0-12.725,4.5,71.63,71.63,0,0,0-10.162,7.264,89.145,89.145,0,0,0-10.862,10.935,78.861,78.861,0,0,0-9.454,14.088,62.1,62.1,0,0,0-5.937,16.721c-.6,0-1.288.008-2.037.008-9.932,0-26.517-.483-44.077-1.021l-2.918-.09h-.011c-15.581-.478-30.3-.93-37.925-.93-1.667,0-2.964.022-3.853.066-5.231.325-10.455.577-15.508.82-16.708.806-32.485,1.567-48.066,4.776A128.613,128.613,0,0,0,148.5,65.355,116.035,116.035,0,0,0,125.744,77.82c-18.083,12.657-29.235,21.664-39.775,32.124-10.581,10.5-20.578,22.5-36.453,42.359A317.118,317.118,0,0,0,16.6,202.13,225.389,225.389,0,0,0,4.12,229.941,68.7,68.7,0,0,0,.25,248.533c-.713,9.506.1,20.474,2.412,32.6.568,2.978,1.057,5.637,1.488,7.983,1.812,9.86,2.81,15.29,5.471,21.872C12.333,317.7,16.74,325.482,25,339.36c8.873,14.914,31.393,50.725,55.653,87.714,16.247,24.771,45.664,68.915,60.145,86.242,2.586,18.938,7.184,69.2,11.63,117.816v.009c5.008,54.757,9.738,106.477,11.432,112.175,7.487,7.153,20.186,16.765,33.97,25.712,13.72,8.906,25.434,15.166,31.334,16.746A67.145,67.145,0,0,0,246.058,787.678Zm48.554-555.433,6.311,4.732,1.578,44.155-9.784,5.047H256.425V250.223Z" transform="translate(2.503 2.5)" fill="#757575" stroke="#fff" stroke-width="5"/></svg>