<svg xmlns="http://www.w3.org/2000/svg" width="593.664" height="810.65" viewBox="0 0 593.664 810.65"><path d="M339.877,809.65h0c-7.971,0-15.241-.984-18.3-1.957-6.537-2.075-10.565-4.8-11.973-8.1a7.985,7.985,0,0,1,.5-6.86c2.033-3.328,5.777-7.68,11.126-12.935,4.278-4.2,9.589-8.992,15.784-14.232,10.521-8.9,20.127-16.153,20.223-16.225l1.5-281.8,3.99-20.948h-8.728L319.577,473.27l0,.006c.207.73,5.073,18.05,6.481,32.414,1.048,10.328.992,24.695.761,34.929-.249,11-.756,19.849-.761,19.935l-6.484,105.471,7.98,30.194a71.441,71.441,0,0,1-1.083,10.467,45.371,45.371,0,0,1-2.38,8.673,18.735,18.735,0,0,1-4.518,7.045,330.444,330.444,0,0,0-38.677,6.839,188.258,188.258,0,0,1-35.39,5.38c-4.085.248-8.108.374-11.956.374-20.3,0-31.646-3.444-35.916-4.741l-.024-.007c-.515-.156-.922-.28-1.233-.363a16.747,16.747,0,0,1-6.444-3.6,12.176,12.176,0,0,1-2.736-3.493,9.542,9.542,0,0,1-1.045-4.629c0-1.386.088-2.111.89-2.77s2.318-1.238,5.082-2.3c1.147-.441,2.575-.991,4.253-1.662a32.162,32.162,0,0,1,9.335-2.112c4.694-.527,9.548-1.073,19.094-6.616,7.987-4.638,16.648-11.782,22.507-16.958,6.329-5.592,10.866-10.18,10.911-10.225l-.009-.1c-.855-9.728-20.939-238.41-20.939-253.272,0-4.721,1.658-10.121,5.067-16.51a144.407,144.407,0,0,1,9.606-14.93c2.68-3.793,4.8-6.788,5.527-8.711a18.886,18.886,0,0,0,.9-8.857,20.936,20.936,0,0,0-.9-4.111s0-.021-.034-.053c-.125-.126-.7-.418-3.365-.418-1.974,0-4.69.159-8.072.471-11.166,1.032-29.549,2.428-30.326,2.486-.081.044-7.887,4.39-10.917,7.2-1.279,1.188-8.307,13.538-12.415,22.522a27.359,27.359,0,0,0-11.089,7.531,18.769,18.769,0,0,1-4.746,3.9,5.852,5.852,0,0,1-2.059-3.48,3.834,3.834,0,0,1,.663-2.982,17.429,17.429,0,0,0,.947-1.5c1.071-1.842,2.4-4.131,10.631-11.6,4.866-9.6,4.629-10.182,4.377-10.8a1.461,1.461,0,0,1-.1-.308c-2.047.666-2.747,1.573-3.906,3.075-1.483,1.923-3.725,4.828-10.555,9.412-9.679,2.32-12.9,5.185-16.622,8.5-1.161,1.034-2.361,2.1-3.824,3.217a2.369,2.369,0,0,1-1.2-1.715,9.45,9.45,0,0,1,1.2-6.656,27.015,27.015,0,0,0,2.069-2.314c2.125-2.587,3.66-4.456,15.3-8.387,7.7-6.412,11.059-10.915,11.019-11.4-4.647,2.77-10.944,6.242-19.248,10.616-13.64,3.178-17.8,5.87-20.027,7.316a8.852,8.852,0,0,1-1.431.822,5.606,5.606,0,0,1-2.272-4.293c.025-1.651,1.025-3.3,2.972-4.9,3.089-2.541,7.194-3.493,11.164-4.414,3.212-.745,6.246-1.449,8.222-2.962a71.914,71.914,0,0,1,10.142-6.376c2.367-1.255,3.67-1.946,4.7-3.686-.821.435-11,3.171-21.1,4.947a109.493,109.493,0,0,0-15.463-1.5,16.441,16.441,0,0,0-3.126.214,1.369,1.369,0,0,1-.207-1.324,6.821,6.821,0,0,1,1.651-2.82,8.147,8.147,0,0,1,3.317-2.22,47.14,47.14,0,0,1,5.771-.229c4.819,0,10.548.227,10.605.229.12-.038,12.1-3.821,18.55-8.03,4.3-2.8,4.833-4.941,4.864-5.73a1.634,1.634,0,0,0-.6-1.408,19.284,19.284,0,0,0-3.792-1.848c-3.276-1.359-7.353-3.05-9.591-6.054-1.7-2.284-4.524-6.314-4.35-7.648a3.976,3.976,0,0,1,1.421-2.668,4.843,4.843,0,0,1,2.929-1.028c.054,0,.108,0,.162,0,2.189,0,4.908,1.6,6.8,2.942a37.02,37.02,0,0,1,3.624,2.942.435.435,0,0,0,.2.07.151.151,0,0,0,.137-.076c.16-.262-.025-1.3-1.813-4.766a90.212,90.212,0,0,1-5.238-13.444l-11.222-2.992L135.8,299.2c-.094-.041-9.848-4.318-20.524-9.237-3.291-.305-5.258-.642-6.695-.887a20.028,20.028,0,0,0-3.64-.4c-1.818,0-4.283.325-9.766,1.289-13.934,2.45-30.623,3.735-30.787,3.748-1.3.1-6.935,2.087-11.463,3.685l-.008,0h0c-2.442.862-4.552,1.607-5.278,1.8-1.043.279-2.964,1.032-4.822,1.76l-.007,0c-1.811.71-3.522,1.38-4.43,1.623-1.051.282-2.409,2.587-3.847,5.028a33.615,33.615,0,0,1-3.438,5.151,3.345,3.345,0,0,1-2.124.73,5.676,5.676,0,0,1-2.888-.937,15.616,15.616,0,0,0,1.085-4.185c.283-.485.548-1.006.854-1.608a45.945,45.945,0,0,1,5.087-8.054c6.5-3.876,9.677-7.774,9.9-8.747-.06-.013-.133-.108-.234-.239a3,3,0,0,0-2.637-1.278c-.107,0-.217,0-.329.011a30,30,0,0,0-5.372,1.188,32.16,32.16,0,0,1-5.271,1.188,55.229,55.229,0,0,1-9.691,7.031c-3.449,2.057-6.512,3.551-7.282,3.551a.415.415,0,0,1-.065,0c-2.138-.338-5.252-1.9-5.538-3.956-.159-1.149,11.094-7.44,21.022-12.991,7.74-4.327,15.047-8.413,15.4-9.213a7.735,7.735,0,0,0-5.4-2.684h-.075c-1.966.026-4.15.962-6.463,1.953a23.638,23.638,0,0,1-7.272,2.246,55.721,55.721,0,0,1-10.722,6.95,43.808,43.808,0,0,1-4.96,2.14c-.078.008-.781.08-1.737.08-2.31,0-6.212-.419-6.395-3.224.28-.191.669-.412,1.12-.669a18.766,18.766,0,0,0,7.439-6.705,42.754,42.754,0,0,1,8.489-5.838c2.806-1.407,6.4-2.852,9.866-4.249,5.85-2.355,11.374-4.579,11.874-6.143a6.762,6.762,0,0,0-2.76-.369c-1.743,0-4.06.19-6.513.39-2.64.216-5.368.439-7.853.477a60.684,60.684,0,0,0-7.713,1.029,22.2,22.2,0,0,1-3.722.5c-.179,0-.352-.007-.515-.022-2.733-.241-4.422-.679-5.474-1.422a3.852,3.852,0,0,1-1.516-3.5c1.9-.528,3.962-.985,5.958-1.428h.006a46.579,46.579,0,0,0,7.24-1.952c2.619-1.155,20.047-4.288,20.223-4.319.293-.032,29.32-3.248,32.3-3.91,1.2-.266,1.835-.643,2.074-1.224.425-1.033-.478-2.779-2.074-5.26a11.574,11.574,0,0,0-4.392-3.8,10.478,10.478,0,0,1-5.085-5.2c-2.279-5.218-2.279-10.438,0-12.7a2.845,2.845,0,0,1,2.18-1.3c2.107,0,4.251,3.2,6.143,6.028,1.242,1.856,2.416,3.608,3.422,4.223,3.035,1.854,47.41,27.2,47.858,27.454l77.808,1c0-.1-.1-11.309-1.23-26.924-.661-9.158-1.538-18.007-2.609-26.3-1.338-10.37-2.983-19.9-4.889-28.323-13.811-9.943-29.272-22.367-42.418-34.085-13.934-12.42-23.4-22.368-26.661-28.012a47.944,47.944,0,0,1-3.783-8.183,46.664,46.664,0,0,1-1.982-7.74,93.912,93.912,0,0,1-.964-14.811v-.007q-.011-.975-.024-1.953.089-.944.172-1.836c.589-6.312,1.015-10.873,2.556-15.969,1.581-5.228,4.351-11.009,9.262-19.328A113.511,113.511,0,0,1,140.726,18.3,86.851,86.851,0,0,1,155.731,5.925C163.816.823,171.855,0,187.964,0A108.79,108.79,0,0,1,207.25,1.294a39.871,39.871,0,0,1,13.072,4.631,73.584,73.584,0,0,1,10.439,7.467,91.6,91.6,0,0,1,11.158,11.24,81.064,81.064,0,0,1,9.711,14.48,63.857,63.857,0,0,1,6.1,17.187c.619,0,1.323.008,2.093.008,10.2,0,27.24-.5,45.279-1.049l3-.092h.011c16.006-.491,31.124-.955,38.959-.955,1.713,0,3.044.023,3.958.068,5.373.334,10.74.593,15.931.843,17.164.828,33.371,1.61,49.377,4.909a132.06,132.06,0,0,1,23.759,7.147,119.175,119.175,0,0,1,23.378,12.813c18.577,13.01,30.033,22.268,40.86,33.02,10.87,10.794,21.139,23.132,37.447,43.54a325.981,325.981,0,0,1,33.815,51.216,231.747,231.747,0,0,1,12.819,28.588,70.655,70.655,0,0,1,3.975,19.11c.733,9.771-.1,21.045-2.478,33.509-.583,3.061-1.085,5.794-1.528,8.205-1.861,10.135-2.886,15.717-5.62,22.483-2.786,6.9-7.313,14.9-15.8,29.164-9.115,15.33-32.249,52.14-57.171,90.161-16.69,25.462-46.909,70.837-61.785,88.648-2.657,19.466-7.38,71.135-11.947,121.1v.009c-5.145,56.284-10,109.447-11.744,115.3-7.691,7.353-20.736,17.233-34.9,26.43-14.094,9.154-26.127,15.589-32.188,17.213A68.939,68.939,0,0,1,339.877,809.65ZM290,238.723l-6.484,4.864L281.9,288.974l10.05,5.188h37.283V257.2Z" transform="translate(0.518 0.5)" fill="#757575" stroke="#707070" stroke-width="1"/></svg>