<svg xmlns="http://www.w3.org/2000/svg" width="420.397" height="1044.512" viewBox="0 0 420.397 1044.512"><path d="M3185.012-7703.552s6.222-.182,9.142-4.951c1.137-27.013,3.048-39.235,9.523-61.329s23.617-40,44.187-41.9,33.141-1.143,45.711,1.9,30.093,12.951,31.617,22.855a194.924,194.924,0,0,1,2.667,40.759c-.762,17.9-6.856,40.379-12.57,50.663s-29.712,44.568-29.712,44.568c26.284,36.568,27.045,35.044,35.426,51.043s12.571,24,12.952,39.616-3.429,24-3.429,24c-1.523,67.8,0,56.758,0,56.758l13.333,31.617c-6.095,20.569-3.047,12.189-3.047,12.189s8.761,35.807,13.713,58.662,7.238,50.282,13.333,56.377,20.95,29.713,18.665,44.188-4.189,35.806-17.141,35.806-25.9-4.189-28.569-19.427,1.9-32.378,0-43.425-17.141-34.282-25.141-44.568-43.044-64-43.044-64l-7.238-1.9s.762-60.186-1.9-64-13.333-3.429-13.333-3.429-10.285,5.715-11.809,12.57-4.571,22.855-9.9,28.569-8,14.855-7.618,21.713,1.142,22.475-1.9,28.569-11.809,9.523-10.666,17.522,8.761,44.187,10.666,60.186,4.571,50.281,9.523,67.423,10.285,20.57,14.095,48.378-4.571,61.71-5.714,70.09-10.666,64-12.57,75.423-9.9,46.473-9.9,46.473c16.76,25.521,28.569,37.331,30.093,48.378s5.333,17.521-1.9,21.712-18.284,2.666-25.9,1.523-19.809-1.143-23.618-6.856-12.189-16.761-16-29.331a199.01,199.01,0,0,0-13.713-33.141c-3.429-6.095-6.476-16.38-6.476-16.38,12.57-23.616,4.571-23.235,3.047-28.187s-4.19-21.332-3.047-36.569,3.809-38.854,3.047-49.139.762-18.665-3.047-24.76-36.95-49.521-36.95-49.521c.381,56.377,4.19,65.52,4.19,90.66s1.143,55.615,3.048,69.328,10.666,61.709,10.285,77.708.762,70.852,0,78.47,4.952,36.95,4.952,36.95c-9.522,8-4.952,11.427-2.666,15.236s13.332,20.189,17.142,29.331,13.333,18.285,10.666,26.284-9.142,13.714-19.808,13.714-30.474-5.715-36.95-8.762-24-16-26.284-20.188-7.619-6.857-6.476-30.855,4.952-17.143,0-21.713-11.046-8.38-11.428-13.713c.762-30.854.762-27.426-3.809-38.854s-15.237-33.9-17.9-46.854-6.094-85.708-6.856-100.944-5.333-60.566-4.571-65.138c11.047-30.094-13.713-59.806-16-65.52s-23.617-60.946-30.855-76.946-14.475-43.8-17.522-64.757-1.524-44.567,1.9-53.71,14.855-37.33,26.283-49.52,24.761-19.809,26.284-36.188-10.285-46.854-10.285-46.854c-8-53.71,4.952-98.659,10.285-113.9s12.951-28.951,20.569-43.807,19.427-17.142,29.712-21.713C3117.969-7703.933,3185.012-7703.552,3185.012-7703.552Z" transform="translate(-2966.874 7813.158)" fill="#757575" stroke="#707070" stroke-width="1"/></svg>