<svg xmlns="http://www.w3.org/2000/svg" width="374.438" height="1161.086" viewBox="0 0 374.438 1161.086"><path d="M2857.4-6948.195s-10.8-21.7-14.267-39.956-4.308-20.178-3.606-38.906,3.138-24.3,6.415-36.007,7.726-21.069,18.026-29.73,25.049-9.6,35.35-9.131a68.107,68.107,0,0,1,37.925,12.876c14.273,10.157,14.286,18.416,17.09,25.985s6.564,23.356,5.15,43.544-1.789,21.05-6.932,38.408a225.183,225.183,0,0,1-10.8,29.316l32.917,25.716a145.13,145.13,0,0,1,43.717,36.518c19.03,24.173,32.4,60.176,32.4,60.176l27.259,81.264-27.259,20.573,23.145,88.978s4.372,9.645,7.714,32.4,5.658,58.633,5.658,58.633-.64,31.367,3.088,53.483,4.8,24.226,11.827,34.979c-2.729,14.181-2.878,11.085-9.793,22.215-10.943,9-11.913,18.284-17.87,22.3-4.848-2.5-4.57-8.175-4.57-8.175l8.587-16.9h0a8.977,8.977,0,0,0,0-6.649c-6.094.691-11.5,2.215-17.5,0-3.556-9.421,1.4-17.76-2.586-23.273-6.372-.416-6.926-.139-13.358,1.218-3.819,6.678-7.7,13.327-10.8,34.46s-10.8,79.206-10.8,79.206-4.115,50.918-7.2,66.862c-13.373,23.146-15.645,22.4-17.487,36s-4.629,104.151-8.229,153.783-2.807,25.924-6.172,44.746c9.218,14.42,9.92,11.846,16.241,20.741,5.619,20.367,5.15,23.879,5.875,39.436,11.112,15.259,27.378,15.785,38.574,21.6s8.981,23.461,3.6,27.774c-29.039,4.786-60.952-1.178-85.219-4.709a122.069,122.069,0,0,1-50.245-18.991c-9.419-6.17-25-30.3-25-30.3s-1.672-13.887,0-20.06,4.778-5.3,6.909-6.972c.223-18.134,3.69-9.429,4.92-53.718s0-123.438,0-123.438-23.145,51.947-34.974,94.636-10.983,72.659-10.983,72.659,1.217,28,0,41.521c-19.282,27.931-19.358,27.053-35,40.04s-15.758,8.8-31.651,9.335-20.019-1.466-28-7.51,0-20.265,0-20.265,13.391-8.342,24.956-29.646c-1.522-30.434-5.782-59.345-6.245-84.02,1.781-41.835,5.62-41.991,10.506-97.668s5.952-121.408,5.952-121.408-1.855-62.364,0-110.318c-8.176-15.488-28.958-29.188-33.946-38.9s-2.7-15,0-27.217c4.7-9.771,6.107-4.387,7.715-19.03-.771-9-5.852-3.238-10.738-27.026s-8.807-68.124-8.807-68.124l-9.258-80.234v-28.288l-10.8-24.171,4.629-50.92s.661-40.076,15.577-72.735,16.991-33.656,44.085-57.9S2857.4-6948.195,2857.4-6948.195Z" transform="translate(-2728.31 7102.526)" fill="#757575" stroke="#707070" stroke-width="1"/></svg>