<svg xmlns="http://www.w3.org/2000/svg" width="430.058" height="1069.777" viewBox="0 0 430.058 1069.777"><path d="M4532.664-6789.709c-11.757-11.263-18.417-22.624-28.734-47.383s-9.4-24.6-12.531-47.317-.3-32.417,4.946-42.621,14.13-17.839,29.827-22.374,36.522-3.309,52.15,2.564,28.384,19.092,36.975,36.761,11.114,49.372,8.549,73.737c37.83,1.068,52.4-1.534,87.628,3.419s41.9,7.514,53.218,16.671,24.506,33.146,32.066,52.334,15.686,52.815,16.287,75.351-9.86,58.226-12.16,79.394c6.056,33.3,12.654,35.039,19.483,45.409s41.979,22.595,35.875,103.171c-1.831,32.963-7.747,37.7-23.807,86.681s-43.932,107.238-43.932,107.238-1.549,69.119-8.254,131.016-13.713,81.632-20.588,107.29-16.616,61.042-16.616,61.042,3.612,27.452,1.806,36.843c-14.05,15.156-22.947,26.135-42.983,36.481s-28.75,6.424-37.16,2.528-10.322-19.546-8.352-27.09,26.367-36.12,26.367-36.12,3.252-43.658,5.711-93.286.774-34.817,4.126-105.226,9.285-176.409,9.285-176.409-22.373,33.586-42.6,53.451c4.7,33.119-2.262,85.459-2.167,114.862.071,21.894,4.879,15.37,7.629,25.632-6.184,20.963-23.868,59.783-36.887,71.531s-37.983,8.173-47.707,4.809c-8.64-6.977-7.744-13.886-6.111-19.979s28.807-41.918,28.807-41.918,2.593-13.028,0-31.98-14.359-82.864-26.822-164.029c-.625-4.907,3.794-27.557,12.824-51.866,7.825-37.616,10.5-43.114,14-81.213s5.674-31.465,0-71.183-15.8-80.8-22.7-87.687-11.875-5.073-16.949,0c-2.527,20.944-5.056,44.061-14.17,60.595s-66.127,101.414-66.127,101.414,1.342,45.792-3.455,60.57-17.1,16.588-22.359,17.5c-11.6,0-17.883-7.457-22.532-17.5s-2.472-26.453,1.5-36.928c3.274-10.274,17.7-33.592,17.7-33.592s17.432-48.009,25.691-91.465,4.931-32.194,11.981-68.29c-2.612-18.981-11.475-60.975,0-100.665S4519.823-6763.046,4532.664-6789.709Z" transform="translate(-4429.396 6954.663)" fill="#757575" stroke="#fff" stroke-width="5"/></svg>